/home/xinjie/Newton_Connection/Newton/phystwin_bridge/tools/core/newton_import_ir.py:1209: UserWarning: tabletop_table_box: PhysTwin ground collide_elas is present in IR, but native Newton SemiImplicit has no direct 1-to-1 restitution field for particle-vs-shape contacts. Ground bounce will therefore use native Newton ground ke/kd/kf defaults unless --ground-restitution-mode=approximate-native is selected.
  warnings.warn(message)
ffmpeg version 6.1.1-3ubuntu5+esm7 Copyright (c) 2000-2023 the FFmpeg developers
  built with gcc 13 (Ubuntu 13.3.0-6ubuntu2~24.04)
  configuration: --prefix=/usr --extra-version=3ubuntu5+esm7 --toolchain=hardened --libdir=/usr/lib/x86_64-linux-gnu --incdir=/usr/include/x86_64-linux-gnu --arch=amd64 --enable-gpl --disable-stripping --disable-omx --enable-gnutls --enable-libaom --enable-libass --enable-libbs2b --enable-libcaca --enable-libcdio --enable-libcodec2 --enable-libdav1d --enable-libflite --enable-libfontconfig --enable-libfreetype --enable-libfribidi --enable-libglslang --enable-libgme --enable-libgsm --enable-libharfbuzz --enable-libmp3lame --enable-libmysofa --enable-libopenjpeg --enable-libopenmpt --enable-libopus --enable-librubberband --enable-libshine --enable-libsnappy --enable-libsoxr --enable-libspeex --enable-libtheora --enable-libtwolame --enable-libvidstab --enable-libvorbis --enable-libvpx --enable-libwebp --enable-libx265 --enable-libxml2 --enable-libxvid --enable-libzimg --enable-openal --enable-opencl --enable-opengl --disable-sndio --enable-libvpl --disable-libmfx --enable-libdc1394 --enable-libdrm --enable-libiec61883 --enable-chromaprint --enable-frei0r --enable-ladspa --enable-libbluray --enable-libjack --enable-libpulse --enable-librabbitmq --enable-librist --enable-libsrt --enable-libssh --enable-libsvtav1 --enable-libx264 --enable-libzmq --enable-libzvbi --enable-lv2 --enable-sdl2 --enable-libplacebo --enable-librav1e --enable-pocketsphinx --enable-librsvg --enable-libjxl --enable-shared
  libavutil      58. 29.100 / 58. 29.100
  libavcodec     60. 31.102 / 60. 31.102
  libavformat    60. 16.100 / 60. 16.100
  libavdevice    60.  3.100 / 60.  3.100
  libavfilter     9. 12.100 /  9. 12.100
  libswscale      7.  5.100 /  7.  5.100
  libswresample   4. 12.100 /  4. 12.100
  libpostproc    57.  3.100 / 57.  3.100
Input #0, rawvideo, from 'fd:':
  Duration: N/A, start: 0.000000, bitrate: 663552 kb/s
  Stream #0:0: Video: rawvideo (RGB[24] / 0x18424752), rgb24, 1280x720, 663552 kb/s, 30 tbr, 30 tbn
Stream mapping:
  Stream #0:0 -> #0:0 (rawvideo (native) -> h264 (libx264))
[libx264 @ 0x598ceda9a580] using cpu capabilities: MMX2 SSE2Fast SSSE3 SSE4.2 AVX FMA3 BMI2 AVX2
[libx264 @ 0x598ceda9a580] profile High, level 3.1, 4:2:0, 8-bit
[libx264 @ 0x598ceda9a580] 264 - core 164 r3108 31e19f9 - H.264/MPEG-4 AVC codec - Copyleft 2003-2023 - http://www.videolan.org/x264.html - options: cabac=1 ref=3 deblock=1:0:0 analyse=0x3:0x113 me=hex subme=7 psy=1 psy_rd=1.00:0.00 mixed_ref=1 me_range=16 chroma_me=1 trellis=1 8x8dct=1 cqm=0 deadzone=21,11 fast_pskip=1 chroma_qp_offset=-2 threads=22 lookahead_threads=3 sliced_threads=0 nr=0 decimate=1 interlaced=0 bluray_compat=0 constrained_intra=0 bframes=3 b_pyramid=2 b_adapt=1 b_bias=0 direct=1 weightb=1 open_gop=0 weightp=2 keyint=250 keyint_min=25 scenecut=40 intra_refresh=0 rc_lookahead=40 rc=crf mbtree=1 crf=18.0 qcomp=0.60 qpmin=0 qpmax=69 qpstep=4 ip_ratio=1.40 aq=1:1.00
Output #0, mp4, to '/home/xinjie/Newton_Connection/Newton/phystwin_bridge/results/robot_rope_franka/candidates/20260403_005533_true0p1_shallowcurve_bx054_by020_bz006_c19/presentation/work/robot_rope_tabletop_hero.mp4':
  Metadata:
    encoder         : Lavf60.16.100
  Stream #0:0: Video: h264 (avc1 / 0x31637661), yuv420p(tv, progressive), 1280x720, q=2-31, 30 fps, 15360 tbn
    Metadata:
      encoder         : Lavc60.31.102 libx264
    Side data:
      cpb: bitrate max/min/avg: 0/0/0 buffer size: 0 vbv_delay: N/A
frame=    0 fps=0.0 q=0.0 size=       0kB time=N/A bitrate=N/A speed=N/A    frame=   40 fps=0.0 q=24.0 size=       0kB time=00:00:01.26 bitrate=   0.3kbits/s speed=2.53x    [out#0/mp4 @ 0x598ceda98c80] video:808kB audio:0kB subtitle:0kB other streams:0kB global headers:0kB muxing overhead: 0.372950%
frame=  186 fps=0.0 q=-1.0 Lsize=     811kB time=00:00:06.10 bitrate=1088.5kbits/s speed=6.53x    
[libx264 @ 0x598ceda9a580] frame I:1     Avg QP:10.85  size: 88148
[libx264 @ 0x598ceda9a580] frame P:47    Avg QP:16.99  size:  8396
[libx264 @ 0x598ceda9a580] frame B:138   Avg QP:23.21  size:  2489
[libx264 @ 0x598ceda9a580] consecutive B-frames:  0.5%  1.1%  1.6% 96.8%
[libx264 @ 0x598ceda9a580] mb I  I16..4: 28.9% 28.2% 42.9%
[libx264 @ 0x598ceda9a580] mb P  I16..4:  0.2%  0.4%  0.3%  P16..4:  4.5%  3.0%  2.5%  0.0%  0.0%    skip:89.2%
[libx264 @ 0x598ceda9a580] mb B  I16..4:  0.0%  0.0%  0.0%  B16..8:  3.7%  1.7%  0.8%  direct: 0.7%  skip:93.1%  L0:35.5% L1:38.5% BI:26.1%
[libx264 @ 0x598ceda9a580] 8x8 transform intra:35.8% inter:17.7%
[libx264 @ 0x598ceda9a580] coded y,uvDC,uvAC intra: 36.2% 42.7% 37.5% inter: 2.6% 0.7% 0.3%
[libx264 @ 0x598ceda9a580] i16 v,h,dc,p: 70% 15%  9%  6%
[libx264 @ 0x598ceda9a580] i8 v,h,dc,ddl,ddr,vr,hd,vl,hu: 36% 10% 36%  1%  6%  5%  3%  1%  3%
[libx264 @ 0x598ceda9a580] i4 v,h,dc,ddl,ddr,vr,hd,vl,hu: 22% 29% 17%  2%  8%  6%  8%  1%  8%
[libx264 @ 0x598ceda9a580] i8c dc,h,v,p: 66% 19% 12%  3%
[libx264 @ 0x598ceda9a580] Weighted P-Frames: Y:0.0% UV:0.0%
[libx264 @ 0x598ceda9a580] ref P L0: 63.9% 12.6% 17.4%  6.0%
[libx264 @ 0x598ceda9a580] ref B L0: 84.6% 13.2%  2.3%
[libx264 @ 0x598ceda9a580] ref B L1: 93.6%  6.4%
[libx264 @ 0x598ceda9a580] kb/s:1066.10
/home/xinjie/Newton_Connection/Newton/phystwin_bridge/tools/core/newton_import_ir.py:1209: UserWarning: tabletop_table_box: PhysTwin ground collide_elas is present in IR, but native Newton SemiImplicit has no direct 1-to-1 restitution field for particle-vs-shape contacts. Ground bounce will therefore use native Newton ground ke/kd/kf defaults unless --ground-restitution-mode=approximate-native is selected.
  warnings.warn(message)
ffmpeg version 6.1.1-3ubuntu5+esm7 Copyright (c) 2000-2023 the FFmpeg developers
  built with gcc 13 (Ubuntu 13.3.0-6ubuntu2~24.04)
  configuration: --prefix=/usr --extra-version=3ubuntu5+esm7 --toolchain=hardened --libdir=/usr/lib/x86_64-linux-gnu --incdir=/usr/include/x86_64-linux-gnu --arch=amd64 --enable-gpl --disable-stripping --disable-omx --enable-gnutls --enable-libaom --enable-libass --enable-libbs2b --enable-libcaca --enable-libcdio --enable-libcodec2 --enable-libdav1d --enable-libflite --enable-libfontconfig --enable-libfreetype --enable-libfribidi --enable-libglslang --enable-libgme --enable-libgsm --enable-libharfbuzz --enable-libmp3lame --enable-libmysofa --enable-libopenjpeg --enable-libopenmpt --enable-libopus --enable-librubberband --enable-libshine --enable-libsnappy --enable-libsoxr --enable-libspeex --enable-libtheora --enable-libtwolame --enable-libvidstab --enable-libvorbis --enable-libvpx --enable-libwebp --enable-libx265 --enable-libxml2 --enable-libxvid --enable-libzimg --enable-openal --enable-opencl --enable-opengl --disable-sndio --enable-libvpl --disable-libmfx --enable-libdc1394 --enable-libdrm --enable-libiec61883 --enable-chromaprint --enable-frei0r --enable-ladspa --enable-libbluray --enable-libjack --enable-libpulse --enable-librabbitmq --enable-librist --enable-libsrt --enable-libssh --enable-libsvtav1 --enable-libx264 --enable-libzmq --enable-libzvbi --enable-lv2 --enable-sdl2 --enable-libplacebo --enable-librav1e --enable-pocketsphinx --enable-librsvg --enable-libjxl --enable-shared
  libavutil      58. 29.100 / 58. 29.100
  libavcodec     60. 31.102 / 60. 31.102
  libavformat    60. 16.100 / 60. 16.100
  libavdevice    60.  3.100 / 60.  3.100
  libavfilter     9. 12.100 /  9. 12.100
  libswscale      7.  5.100 /  7.  5.100
  libswresample   4. 12.100 /  4. 12.100
  libpostproc    57.  3.100 / 57.  3.100
Input #0, rawvideo, from 'fd:':
  Duration: N/A, start: 0.000000, bitrate: 663552 kb/s
  Stream #0:0: Video: rawvideo (RGB[24] / 0x18424752), rgb24, 1280x720, 663552 kb/s, 30 tbr, 30 tbn
Stream mapping:
  Stream #0:0 -> #0:0 (rawvideo (native) -> h264 (libx264))
[libx264 @ 0x64ff50cb5580] using cpu capabilities: MMX2 SSE2Fast SSSE3 SSE4.2 AVX FMA3 BMI2 AVX2
[libx264 @ 0x64ff50cb5580] profile High, level 3.1, 4:2:0, 8-bit
[libx264 @ 0x64ff50cb5580] 264 - core 164 r3108 31e19f9 - H.264/MPEG-4 AVC codec - Copyleft 2003-2023 - http://www.videolan.org/x264.html - options: cabac=1 ref=3 deblock=1:0:0 analyse=0x3:0x113 me=hex subme=7 psy=1 psy_rd=1.00:0.00 mixed_ref=1 me_range=16 chroma_me=1 trellis=1 8x8dct=1 cqm=0 deadzone=21,11 fast_pskip=1 chroma_qp_offset=-2 threads=22 lookahead_threads=3 sliced_threads=0 nr=0 decimate=1 interlaced=0 bluray_compat=0 constrained_intra=0 bframes=3 b_pyramid=2 b_adapt=1 b_bias=0 direct=1 weightb=1 open_gop=0 weightp=2 keyint=250 keyint_min=25 scenecut=40 intra_refresh=0 rc_lookahead=40 rc=crf mbtree=1 crf=18.0 qcomp=0.60 qpmin=0 qpmax=69 qpstep=4 ip_ratio=1.40 aq=1:1.00
Output #0, mp4, to '/home/xinjie/Newton_Connection/Newton/phystwin_bridge/results/robot_rope_franka/candidates/20260403_005533_true0p1_shallowcurve_bx054_by020_bz006_c19/debug/work/robot_rope_tabletop_hero_debug.mp4':
  Metadata:
    encoder         : Lavf60.16.100
  Stream #0:0: Video: h264 (avc1 / 0x31637661), yuv420p(tv, progressive), 1280x720, q=2-31, 30 fps, 15360 tbn
    Metadata:
      encoder         : Lavc60.31.102 libx264
    Side data:
      cpb: bitrate max/min/avg: 0/0/0 buffer size: 0 vbv_delay: N/A
frame=    0 fps=0.0 q=0.0 size=       0kB time=N/A bitrate=N/A speed=N/A    frame=    0 fps=0.0 q=0.0 size=       0kB time=N/A bitrate=N/A speed=N/A    frame=    0 fps=0.0 q=0.0 size=       0kB time=N/A bitrate=N/A speed=N/A    frame=    0 fps=0.0 q=0.0 size=       0kB time=N/A bitrate=N/A speed=N/A    frame=    0 fps=0.0 q=0.0 size=       0kB time=N/A bitrate=N/A speed=N/A    frame=    0 fps=0.0 q=0.0 size=       0kB time=N/A bitrate=N/A speed=N/A    frame=    0 fps=0.0 q=0.0 size=       0kB time=N/A bitrate=N/A speed=N/A    frame=    0 fps=0.0 q=0.0 size=       0kB time=N/A bitrate=N/A speed=N/A    frame=    0 fps=0.0 q=0.0 size=       0kB time=N/A bitrate=N/A speed=N/A    frame=    0 fps=0.0 q=0.0 size=       0kB time=N/A bitrate=N/A speed=N/A    frame=    1 fps=0.2 q=24.0 size=       0kB time=-00:00:00.03 bitrate=N/A speed=N/A    frame=    8 fps=1.3 q=24.0 size=       0kB time=00:00:00.20 bitrate=   1.9kbits/s speed=0.033x    frame=   14 fps=2.1 q=24.0 size=       0kB time=00:00:00.40 bitrate=   1.0kbits/s speed=0.0607x    frame=   20 fps=2.8 q=24.0 size=       0kB time=00:00:00.60 bitrate=   0.6kbits/s speed=0.0843x    frame=   26 fps=3.4 q=24.0 size=       0kB time=00:00:00.80 bitrate=   0.5kbits/s speed=0.105x    frame=   33 fps=4.0 q=24.0 size=       0kB time=00:00:01.03 bitrate=   0.4kbits/s speed=0.126x    frame=   40 fps=4.6 q=24.0 size=       0kB time=00:00:01.26 bitrate=   0.3kbits/s speed=0.145x    frame=   47 fps=5.0 q=24.0 size=       0kB time=00:00:01.50 bitrate=   0.3kbits/s speed=0.161x    frame=   54 fps=5.5 q=24.0 size=       0kB time=00:00:01.73 bitrate=   0.2kbits/s speed=0.175x    frame=   61 fps=5.8 q=24.0 size=       0kB time=00:00:01.96 bitrate=   0.2kbits/s speed=0.188x    frame=   68 fps=6.2 q=24.0 size=       0kB time=00:00:02.20 bitrate=   0.2kbits/s speed= 0.2x    frame=   75 fps=6.5 q=24.0 size=     256kB time=00:00:02.43 bitrate= 862.0kbits/s speed=0.21x    frame=   81 fps=6.7 q=24.0 size=     256kB time=00:00:02.63 bitrate= 796.5kbits/s speed=0.218x    frame=   87 fps=6.9 q=24.0 size=     256kB time=00:00:02.83 bitrate= 740.3kbits/s speed=0.225x    frame=   94 fps=7.1 q=24.0 size=     256kB time=00:00:03.06 bitrate= 684.0kbits/s speed=0.233x    frame=  101 fps=7.3 q=24.0 size=     256kB time=00:00:03.30 bitrate= 635.6kbits/s speed=0.24x    frame=  108 fps=7.5 q=24.0 size=     256kB time=00:00:03.53 bitrate= 593.6kbits/s speed=0.247x    frame=  115 fps=7.7 q=24.0 size=     256kB time=00:00:03.76 bitrate= 556.9kbits/s speed=0.253x    [out#0/mp4 @ 0x64ff50cb3c80] video:787kB audio:0kB subtitle:0kB other streams:0kB global headers:0kB muxing overhead: 0.381929%
frame=  186 fps= 12 q=-1.0 Lsize=     790kB time=00:00:06.10 bitrate=1060.3kbits/s speed=0.398x    
[libx264 @ 0x64ff50cb5580] frame I:1     Avg QP:12.62  size: 52324
[libx264 @ 0x64ff50cb5580] frame P:48    Avg QP:17.31  size:  9052
[libx264 @ 0x64ff50cb5580] frame B:137   Avg QP:24.29  size:  2320
[libx264 @ 0x64ff50cb5580] consecutive B-frames:  1.1%  1.1%  3.2% 94.6%
[libx264 @ 0x64ff50cb5580] mb I  I16..4: 30.9% 46.2% 22.9%
[libx264 @ 0x64ff50cb5580] mb P  I16..4:  0.2%  0.3%  0.4%  P16..4:  4.2%  2.9%  2.6%  0.0%  0.0%    skip:89.4%
[libx264 @ 0x64ff50cb5580] mb B  I16..4:  0.0%  0.0%  0.0%  B16..8:  3.2%  1.5%  0.8%  direct: 0.8%  skip:93.7%  L0:34.5% L1:40.3% BI:25.2%
[libx264 @ 0x64ff50cb5580] 8x8 transform intra:40.9% inter:20.4%
[libx264 @ 0x64ff50cb5580] coded y,uvDC,uvAC intra: 27.3% 23.4% 15.0% inter: 2.5% 0.7% 0.3%
[libx264 @ 0x64ff50cb5580] i16 v,h,dc,p: 69% 21%  7%  3%
[libx264 @ 0x64ff50cb5580] i8 v,h,dc,ddl,ddr,vr,hd,vl,hu: 42% 14% 37%  1%  2%  1%  1%  1%  1%
[libx264 @ 0x64ff50cb5580] i4 v,h,dc,ddl,ddr,vr,hd,vl,hu: 28% 26% 14%  3%  7%  7%  5%  4%  6%
[libx264 @ 0x64ff50cb5580] i8c dc,h,v,p: 69% 22%  8%  2%
[libx264 @ 0x64ff50cb5580] Weighted P-Frames: Y:0.0% UV:0.0%
[libx264 @ 0x64ff50cb5580] ref P L0: 66.0% 14.1% 14.3%  5.5%
[libx264 @ 0x64ff50cb5580] ref B L0: 87.2% 10.7%  2.1%
[libx264 @ 0x64ff50cb5580] ref B L1: 95.4%  4.6%
[libx264 @ 0x64ff50cb5580] kb/s:1038.32
/home/xinjie/Newton_Connection/Newton/phystwin_bridge/tools/core/newton_import_ir.py:1209: UserWarning: tabletop_table_box: PhysTwin ground collide_elas is present in IR, but native Newton SemiImplicit has no direct 1-to-1 restitution field for particle-vs-shape contacts. Ground bounce will therefore use native Newton ground ke/kd/kf defaults unless --ground-restitution-mode=approximate-native is selected.
  warnings.warn(message)
ffmpeg version 6.1.1-3ubuntu5+esm7 Copyright (c) 2000-2023 the FFmpeg developers
  built with gcc 13 (Ubuntu 13.3.0-6ubuntu2~24.04)
  configuration: --prefix=/usr --extra-version=3ubuntu5+esm7 --toolchain=hardened --libdir=/usr/lib/x86_64-linux-gnu --incdir=/usr/include/x86_64-linux-gnu --arch=amd64 --enable-gpl --disable-stripping --disable-omx --enable-gnutls --enable-libaom --enable-libass --enable-libbs2b --enable-libcaca --enable-libcdio --enable-libcodec2 --enable-libdav1d --enable-libflite --enable-libfontconfig --enable-libfreetype --enable-libfribidi --enable-libglslang --enable-libgme --enable-libgsm --enable-libharfbuzz --enable-libmp3lame --enable-libmysofa --enable-libopenjpeg --enable-libopenmpt --enable-libopus --enable-librubberband --enable-libshine --enable-libsnappy --enable-libsoxr --enable-libspeex --enable-libtheora --enable-libtwolame --enable-libvidstab --enable-libvorbis --enable-libvpx --enable-libwebp --enable-libx265 --enable-libxml2 --enable-libxvid --enable-libzimg --enable-openal --enable-opencl --enable-opengl --disable-sndio --enable-libvpl --disable-libmfx --enable-libdc1394 --enable-libdrm --enable-libiec61883 --enable-chromaprint --enable-frei0r --enable-ladspa --enable-libbluray --enable-libjack --enable-libpulse --enable-librabbitmq --enable-librist --enable-libsrt --enable-libssh --enable-libsvtav1 --enable-libx264 --enable-libzmq --enable-libzvbi --enable-lv2 --enable-sdl2 --enable-libplacebo --enable-librav1e --enable-pocketsphinx --enable-librsvg --enable-libjxl --enable-shared
  libavutil      58. 29.100 / 58. 29.100
  libavcodec     60. 31.102 / 60. 31.102
  libavformat    60. 16.100 / 60. 16.100
  libavdevice    60.  3.100 / 60.  3.100
  libavfilter     9. 12.100 /  9. 12.100
  libswscale      7.  5.100 /  7.  5.100
  libswresample   4. 12.100 /  4. 12.100
  libpostproc    57.  3.100 / 57.  3.100
Input #0, rawvideo, from 'fd:':
  Duration: N/A, start: 0.000000, bitrate: 663552 kb/s
  Stream #0:0: Video: rawvideo (RGB[24] / 0x18424752), rgb24, 1280x720, 663552 kb/s, 30 tbr, 30 tbn
Stream mapping:
  Stream #0:0 -> #0:0 (rawvideo (native) -> h264 (libx264))
[libx264 @ 0x5589e0843580] using cpu capabilities: MMX2 SSE2Fast SSSE3 SSE4.2 AVX FMA3 BMI2 AVX2
[libx264 @ 0x5589e0843580] profile High, level 3.1, 4:2:0, 8-bit
[libx264 @ 0x5589e0843580] 264 - core 164 r3108 31e19f9 - H.264/MPEG-4 AVC codec - Copyleft 2003-2023 - http://www.videolan.org/x264.html - options: cabac=1 ref=3 deblock=1:0:0 analyse=0x3:0x113 me=hex subme=7 psy=1 psy_rd=1.00:0.00 mixed_ref=1 me_range=16 chroma_me=1 trellis=1 8x8dct=1 cqm=0 deadzone=21,11 fast_pskip=1 chroma_qp_offset=-2 threads=22 lookahead_threads=3 sliced_threads=0 nr=0 decimate=1 interlaced=0 bluray_compat=0 constrained_intra=0 bframes=3 b_pyramid=2 b_adapt=1 b_bias=0 direct=1 weightb=1 open_gop=0 weightp=2 keyint=250 keyint_min=25 scenecut=40 intra_refresh=0 rc_lookahead=40 rc=crf mbtree=1 crf=18.0 qcomp=0.60 qpmin=0 qpmax=69 qpstep=4 ip_ratio=1.40 aq=1:1.00
Output #0, mp4, to '/home/xinjie/Newton_Connection/Newton/phystwin_bridge/results/robot_rope_franka/candidates/20260403_005533_true0p1_shallowcurve_bx054_by020_bz006_c19/validation/work/robot_rope_tabletop_hero_validation.mp4':
  Metadata:
    encoder         : Lavf60.16.100
  Stream #0:0: Video: h264 (avc1 / 0x31637661), yuv420p(tv, progressive), 1280x720, q=2-31, 30 fps, 15360 tbn
    Metadata:
      encoder         : Lavc60.31.102 libx264
    Side data:
      cpb: bitrate max/min/avg: 0/0/0 buffer size: 0 vbv_delay: N/A
frame=    0 fps=0.0 q=0.0 size=       0kB time=N/A bitrate=N/A speed=N/A    frame=   32 fps=0.0 q=24.0 size=       0kB time=00:00:01.00 bitrate=   0.4kbits/s speed=1.99x    [out#0/mp4 @ 0x5589e0841c80] video:664kB audio:0kB subtitle:0kB other streams:0kB global headers:0kB muxing overhead: 0.454616%
frame=  186 fps=0.0 q=-1.0 Lsize=     667kB time=00:00:06.10 bitrate= 896.0kbits/s speed=6.18x    
[libx264 @ 0x5589e0843580] frame I:1     Avg QP: 9.23  size: 84760
[libx264 @ 0x5589e0843580] frame P:47    Avg QP:16.73  size:  6623
[libx264 @ 0x5589e0843580] frame B:138   Avg QP:22.73  size:  2054
[libx264 @ 0x5589e0843580] consecutive B-frames:  1.1%  0.0%  0.0% 98.9%
[libx264 @ 0x5589e0843580] mb I  I16..4: 43.4% 13.9% 42.7%
[libx264 @ 0x5589e0843580] mb P  I16..4:  0.1%  0.3%  0.2%  P16..4:  2.8%  2.3%  1.9%  0.0%  0.0%    skip:92.4%
[libx264 @ 0x5589e0843580] mb B  I16..4:  0.0%  0.1%  0.0%  B16..8:  2.9%  1.2%  0.6%  direct: 0.6%  skip:94.6%  L0:35.6% L1:37.3% BI:27.1%
[libx264 @ 0x5589e0843580] 8x8 transform intra:25.1% inter:17.6%
[libx264 @ 0x5589e0843580] coded y,uvDC,uvAC intra: 32.2% 43.0% 38.3% inter: 2.0% 0.5% 0.2%
[libx264 @ 0x5589e0843580] i16 v,h,dc,p: 83%  7%  8%  2%
[libx264 @ 0x5589e0843580] i8 v,h,dc,ddl,ddr,vr,hd,vl,hu: 22% 11% 48%  1%  5%  7%  3%  1%  3%
[libx264 @ 0x5589e0843580] i4 v,h,dc,ddl,ddr,vr,hd,vl,hu: 25% 31% 15%  2%  6%  6%  7%  1%  7%
[libx264 @ 0x5589e0843580] i8c dc,h,v,p: 68% 17% 13%  2%
[libx264 @ 0x5589e0843580] Weighted P-Frames: Y:0.0% UV:0.0%
[libx264 @ 0x5589e0843580] ref P L0: 62.4% 13.8% 18.2%  5.7%
[libx264 @ 0x5589e0843580] ref B L0: 83.9% 13.6%  2.5%
[libx264 @ 0x5589e0843580] ref B L1: 94.4%  5.6%
[libx264 @ 0x5589e0843580] kb/s:876.70
